<svg id="Warstwa_1" data-name="Warstwa 1" xmlns="http://www.w3.org/2000/svg" xmlns:xlink="http://www.w3.org/1999/xlink" viewBox="0 0 850.37 88.35"><defs><style>.cls-1,.cls-3{fill:#fff;}.cls-2{fill:url(#Безымянный_градиент);}.cls-3{font-size:76px;font-family:Arial-BoldMT, Arial;font-weight:700;}.cls-4{letter-spacing:-0.04em;}</style><linearGradient id="Безымянный_градиент" x1="221.55" y1="725.24" x2="359.73" y2="725.24" gradientTransform="translate(0 -678)" gradientUnits="userSpaceOnUse"><stop offset="0" stop-color="#56d0b4"/><stop offset="1" stop-color="#00624e"/></linearGradient></defs><path class="cls-1" d="M0,87.09V9.37H19.43v59H45.49V87.09Z"/><path class="cls-1" d="M55.57,9.37H75V87.09H55.57Z"/><path class="cls-1" d="M112.14,60.69v26.4H92.71V9.37H138.2V28.11H112.14V41.94h23.77V60.69Z"/><path class="cls-1" d="M152.62,87.09V9.37h45.5V28.11H172.05V38.52h23.78V57.26H172.05V68.35h26.07V87.09Z"/><rect class="cls-2" x="221.55" y="8.37" width="138.18" height="77.73"/><rect class="cls-1" x="237.15" y="23.47" width="16.88" height="49.25"/><polygon class="cls-1" points="335.11 23.47 320.04 23.47 318.23 23.47 318.23 51.32 317.6 50.83 296.87 35.08 281.73 23.47 278.82 23.47 271 23.47 268.09 23.47 268.09 34.26 286.09 48.06 286.78 48.59 284.11 50.66 268.09 38.37 268.09 42.48 281.44 52.72 278.77 54.79 268.09 46.6 268.09 50.71 276.1 56.85 273.43 58.92 268.09 54.82 268.09 58.94 270.76 60.98 269.91 61.64 268.09 63.05 268.09 72.72 269.91 72.72 284.97 72.72 286.79 72.72 286.79 48.59 306.82 63.81 318.23 72.72 320.04 72.72 321.14 72.72 324.37 72.72 327.28 72.72 335.11 72.72 336.93 72.72 336.93 50.18 336.93 48.54 336.93 23.47 335.11 23.47"/><text class="cls-3" transform="translate(373.99 84.29)">LJUBLJAN<tspan class="cls-4" x="396.92" y="0">A</tspan></text></svg>