<svg id="Warstwa_1" data-name="Warstwa 1" xmlns="http://www.w3.org/2000/svg" xmlns:xlink="http://www.w3.org/1999/xlink" viewBox="0 0 630.79 175.47"><defs><style>.cls-1{fill:url(#Безымянный_градиент);}.cls-2,.cls-3{fill:#fff;}.cls-3{font-size:76px;font-family:Arial-BoldMT, Arial;font-weight:700;}.cls-4{letter-spacing:-0.04em;}</style><linearGradient id="Безымянный_градиент" y1="725.35" x2="138.19" y2="725.35" gradientTransform="translate(0 -590)" gradientUnits="userSpaceOnUse"><stop offset="0" stop-color="#56d0b4"/><stop offset="1" stop-color="#00624e"/></linearGradient></defs><rect class="cls-1" y="96.48" width="138.19" height="77.73"/><rect class="cls-2" x="19.6" y="110.58" width="16.88" height="49.25"/><polygon class="cls-2" points="117.57 110.58 102.5 110.58 100.69 110.58 100.69 138.43 100.05 137.94 79.32 122.19 64.19 110.58 61.28 110.58 53.46 110.58 50.55 110.58 50.55 121.37 68.54 135.17 69.23 135.7 66.56 137.77 50.55 125.48 50.55 129.59 63.89 139.83 61.22 141.9 50.55 133.71 50.55 137.82 58.55 143.96 55.88 146.03 50.55 141.93 50.55 146.05 53.22 148.09 52.36 148.76 50.55 150.16 50.55 159.83 52.36 159.83 67.43 159.83 69.24 159.83 69.24 135.71 89.28 150.92 100.69 159.83 102.5 159.83 103.6 159.83 106.83 159.83 109.74 159.83 117.57 159.83 119.38 159.83 119.38 137.29 119.38 135.65 119.38 110.58 117.57 110.58"/><path class="cls-2" d="M166.5,88V10.27h19.43v59H212V88Z"/><path class="cls-2" d="M222.07,10.27H241.5V88H222.07Z"/><path class="cls-2" d="M278.64,61.59V88H259.21V10.27H304.7V29H278.64V42.84h23.77V61.59Z"/><path class="cls-2" d="M319.12,88V10.27h45.5V29H338.55V39.42h23.78V58.16H338.55V69.25h26.07V88Z"/><text class="cls-3" transform="translate(162.99 170.79)">LJUBLJAN<tspan class="cls-4" x="396.92" y="0">A</tspan></text></svg>