<svg id="Warstwa_1" data-name="Warstwa 1" xmlns="http://www.w3.org/2000/svg" xmlns:xlink="http://www.w3.org/1999/xlink" viewBox="0 0 630.79 256.28"><defs><style>.cls-1{fill:url(#Безымянный_градиент);}.cls-2,.cls-3{fill:#fff;}.cls-3{font-size:76px;font-family:Arial-BoldMT, Arial;font-weight:700;}.cls-4{letter-spacing:-0.04em;}</style><linearGradient id="Безымянный_градиент" x1="10" y1="588.35" x2="148.19" y2="588.35" gradientTransform="translate(0 -510)" gradientUnits="userSpaceOnUse"><stop offset="0" stop-color="#56d0b4"/><stop offset="1" stop-color="#00624e"/></linearGradient></defs><rect class="cls-1" x="10" y="39.48" width="138.19" height="77.73"/><rect class="cls-2" x="29.6" y="53.58" width="16.88" height="49.25"/><polygon class="cls-2" points="127.57 53.58 112.5 53.58 110.69 53.58 110.69 81.43 110.05 80.94 89.32 65.19 74.19 53.58 71.28 53.58 63.46 53.58 60.55 53.58 60.55 64.37 78.54 78.17 79.23 78.7 76.56 80.77 60.55 68.48 60.55 72.59 73.89 82.83 71.22 84.9 60.55 76.71 60.55 80.82 68.55 86.96 65.88 89.03 60.55 84.93 60.55 89.05 63.22 91.09 62.36 91.76 60.55 93.16 60.55 102.83 62.36 102.83 77.43 102.83 79.24 102.83 79.24 78.71 99.28 93.92 110.69 102.83 112.5 102.83 113.6 102.83 116.83 102.83 119.74 102.83 127.57 102.83 129.38 102.83 129.38 80.29 129.38 78.65 129.38 53.58 127.57 53.58"/><path class="cls-2" d="M175.5,117.62V39.9h19.43v59H221v18.72Z"/><path class="cls-2" d="M231.07,39.9H250.5v77.72H231.07Z"/><path class="cls-2" d="M287.64,91.22v26.4H268.21V39.9H313.7V58.64H287.64V72.47h23.77V91.22Z"/><path class="cls-2" d="M328.12,117.62V39.9h45.5V58.64H347.55V69.05h23.78V87.79H347.55V98.88h26.07v18.74Z"/><text class="cls-3" transform="translate(170.99 215.29)">LJUBLJAN<tspan class="cls-4" x="396.92" y="0">A</tspan></text></svg>